# AST/ASF file generated using VICON BodyLanguage
# -----------------------------------------------
:version 1.10
:name VICON
:units
  mass 1.0
  length 0.45
  angle deg
:documentation
   .ast/.asf automatically generated from VICON data using
   VICON BodyBuilder and BodyLanguage model FoxedUp or BRILLIANT.MOD
:root
   order TX TY TZ RX RY RZ
   axis XYZ
   position 0 0 0  
   orientation 0 -0 0 
:bonedata
  begin
     id 1 
     name lhipjoint
     direction 0.500677 -0.737119 0.453848 
     length 2.34727 
     axis 0 -0 0  XYZ
  end
  begin
     id 2 
     name lfemur
     direction 0.34202 -0.939693 0  
     length 7.53653  
     axis 0 -0 20  XYZ
    dof rx ry rz
    limits (-160.0 20.0)
           (-70.0 70.0)
           (-60.0 70.0)
  end
  begin
     id 3 
     name ltibia
     direction 0.34202 -0.939693 0   
     length 6.85572   
     axis 0 -0 20   XYZ
    dof rx
    limits (-10.0 170.0)
  end
  begin
     id 4 
     name lfoot
     direction 0.155313 -0.426718 0.890949   
     length 2.18324   
     axis -90 -1.13533e-015 20   XYZ
    dof rx rz
    limits (-45.0 90.0)
           (-70.0 20.0)
  end
  begin
     id 5 
     name ltoes
     direction 1.53474e-011 -4.21647e-011 1   
     length 1.06748   
     axis -90 -1.13533e-015 20   XYZ
    dof rx
    limits (-90.0 20.0)
  end
  begin
     id 6 
     name rhipjoint
     direction -0.632471 -0.659587 0.406111   
     length 2.62319  
     axis 0 -0 0  XYZ 
  end
  begin
     id 7 
     name rfemur
     direction -0.34202 -0.939693 0   
     length 7.21735   
     axis 0 -0 -20   XYZ
    dof rx ry rz
    limits (-160.0 20.0)
           (-70.0 70.0)
           (-70.0 60.0)
  end
  begin
     id 8 
     name rtibia
     direction -0.34202 -0.939693 0   
     length 7.02558   
     axis 0 -0 -20   XYZ
    dof rx
    limits (-10.0 170.0)
 end
 begin
     id 9 
     name rfoot
     direction -0.16057 -0.441164 0.882945   
     length 2.10014  
     axis -90 1.13533e-015 -20   XYZ
    dof rx rz
    limits (-45.0 90.0)
           (-20.0 70.0)
  end
  begin
     id 10 
     name rtoes
     direction -1.53553e-011 -4.2192e-011 1   
     length 1.02554   
     axis -90 1.13533e-015 -20   XYZ
    dof rx
    limits (-90.0 20.0)
  end
  begin
     id 11 
     name lowerback
     direction 0.0401429 0.998861 -0.0258085   
     length 1.80848   
     axis 0 -0 0   XYZ
    dof rx ry rz
    limits (-20.0 45.0)
           (-30.0 30.0)
           (-30.0 30.0)
  end
  begin
     id 12 
     name upperback
     direction -0.0130978 0.999914 -0.000352645   
     length 1.8116   
     axis 0 -0 0   XYZ
    dof rx ry rz
    limits (-20.0 45.0)
           (-30.0 30.0)
           (-30.0 30.0)
  end
  begin
     id 13 
     name thorax
     direction -0.0300198 0.999453 0.0138573   
     length 1.81778   
     axis 0 -0 0   XYZ
    dof rx ry rz
    limits (-20.0 45.0)
           (-30.0 30.0)
           (-30.0 30.0)
  end
  begin
     id 14 
     name lowerneck
     direction -0.0401726 0.999191 -0.00173647   
     length 2.10594   
     axis 0 -0 0   XYZ
    dof rx ry rz
    limits (-20.0 45.0)
           (-30.0 30.0)
           (-30.0 30.0)
  end
  begin
     id 15 
     name upperneck
     direction 0.0119835 0.998501 0.0534085   
     length 2.07325   
     axis 0 -0 0   XYZ
    dof rx ry rz
    limits (-20.0 45.0)
           (-30.0 30.0)
           (-30.0 30.0)
  end
  begin
     id 16
     name head
     direction 0.00628309 0.999826 0.0175921  
     length 2.15096  
     axis 0 -0 0   XYZ
    dof rx ry rz
    limits (-20.0 45.0)
           (-30.0 30.0)
           (-30.0 30.0)
  end
  begin
     id 17 
     name lclavicle
     direction 0.895501 0.429681 -0.115981  
     length 4.18092  
     axis 0 -0 0   XYZ
    dof ry rz
    limits (-20.0 10.0)
           (0.0 20.0)
  end
  begin
     id 18 
     name lhumerus
     direction 1 -4.48961e-011 -3.38433e-028   
     length 5.77237   
     axis 180 -30 -90   XYZ
    dof rx ry rz
    limits (-60.0 90.0)
           (-90.0 90.0)
           (-90.0 90.0)
  end
  begin
     id 19
     name lradius
     direction 1 -4.4901e-011 1.11983e-026   
     length 2.91878   
     axis 180 -30 -90   XYZ
    dof rx
    limits (-10.0 170.0)
  end
  begin
     id 20
     name lwrist
     direction 1 -4.48934e-011 1.88176e-026   
     length 1.45939   
     axis -1.23311e-014 90 90   XYZ
    dof ry
    limits (-180.0 0.0)
 end
  begin
     id 21 
     name lhand
     direction 1 -4.4895e-011 3.76352e-026   
     length 1.06566   
     axis -2.40147e-014 90 90   XYZ
    dof rx rz
    limits (-90.0 90.0)
           (-45.0 45.0)
  end
  begin
     id 22 
     name lfingers
     direction 1 -4.49005e-011 7.52705e-026   
     length 0.859162   
     axis -4.80295e-014 90 90   XYZ
    dof rx
    limits (0.0 90.0)
  end
  begin
     id 23
     name lthumb
     direction 0.707107 -6.34885e-011 0.707107   
     length 1.23359   
     axis -90 45 -9.86935e-015   XYZ
    dof rx rz
    limits (-45.0 45.0)
           (-45.0 45.0)
  end
  begin
     id 24 
     name rclavicle
     direction -0.91006 0.40451 -0.0903492   
     length 4.23293  
     axis 0 -0 0   XYZ 
    dof ry rz
    limits (-10.0 20.0)
           (-20.0 0.0)
  end
  begin
     id 25 
     name rhumerus
     direction -1 -4.4897e-011 1.7415e-027  
     length 5.49854   
     axis 180 30 90   XYZ
    dof rx ry rz
    limits (-90.0 60.0)
           (-90.0 90.0)
           (-90.0 90.0)
  end
  begin
     id 26 
     name rradius
     direction -1 -4.48963e-011 1.21259e-026   
     length 3.1186   
     axis 180 30 90   XYZ
    dof rx
    limits (-10.0 170.0)
  end
  begin
     id 27 
     name rwrist
     direction -1 -4.48967e-011 1.88176e-026   
     length 1.5593   
     axis -1.23311e-014 -90 -90   XYZ
    dof ry
    limits (-180.0 0.0)
  end
  begin
     id 28
     name rhand
     direction -1 -4.4895e-011 3.76352e-026   
     length 0.71207   
     axis -2.40147e-014 -90 -90   XYZ
    dof rx rz
    limits (-90.0 90.0)
           (-45.0 45.0)
  end
  begin
     id 29
     name rfingers
     direction -1 -4.49005e-011 7.52705e-026   
     length 0.574089   
     axis -4.80295e-014 -90 -90   XYZ
    dof rx
    limits (0.0 90.0)
  end
  begin
     id 30
     name rthumb
     direction -0.707107 -6.34982e-011 0.707107   
     length 0.824281   
     axis -90 -45 9.86935e-015   XYZ
    dof rx rz
    limits (-45.0 45.0)
           (-45.0 45.0)
  end
:hierarchy
  begin
    root lhipjoint rhipjoint lowerback
    lhipjoint lfemur
    lfemur ltibia
    ltibia lfoot
    lfoot ltoes
    rhipjoint rfemur
    rfemur rtibia
    rtibia rfoot
    rfoot rtoes
    lowerback upperback
    upperback thorax
    thorax lowerneck lclavicle rclavicle
    lowerneck upperneck
    upperneck head
    lclavicle lhumerus
    lhumerus lradius
    lradius lwrist
    lwrist lhand lthumb
    lhand lfingers
    rclavicle rhumerus
    rhumerus rradius
    rradius rwrist
    rwrist rhand rthumb
    rhand rfingers
  end

#!OML:ASF C:\ViconDB\ViconDB\414\Spring2016\042216\male.ASF
:FULLY-SPECIFIED
:DEGREES
665
root 14.0868 17.6062 16.8476 -179.081 38.6568 -179.266
lowerback -3.79375 -3.43168 1.25428
upperback -1.09229 -4.59504 -0.127624
thorax 0.890869 -2.28572 -1.0326
lowerneck -3.9058 -5.78041 -12.6231
upperneck 7.92801 -7.94636 13.5731
head 4.04836 -3.70993 5.85325
rclavicle 9.49422e-014 1.06847e-015
rhumerus -32.4666 5.78115 -96.7454
rradius 34.9565
rwrist 16.7849
rhand 14.0417 -16.9784
rfingers 7.12502
rthumb 38.9488 -42.5131
lclavicle 9.49422e-014 1.06847e-015
lhumerus -38.5996 14.857 92.1962
lradius 32.1876
lwrist -15.131
lhand -1.77589 10.4997
lfingers 7.12502
lthumb 23.8883 39.034
rfemur -3.8377 1.22095 21.4523
rtibia 22.614
rfoot -11.852 9.99401
rtoes -5.40362
lfemur 7.31753 -1.11608 -23.1922
ltibia 28.2878
lfoot -12.2603 10.3287
ltoes -33.1175
666
root 14.1017 17.5905 16.8171 -178.898 38.3888 -178.886
lowerback -3.563 -3.48453 1.5786
upperback -1.14326 -4.67422 -0.0037844
thorax 0.692142 -2.32714 -1.07072
lowerneck -3.85662 -5.78938 -12.5415
upperneck 7.9243 -7.94975 13.3352
head 4.02637 -3.72233 5.76402
rclavicle -1.78844e-014 8.13775e-016
rhumerus -32.0563 3.90841 -95.7828
rradius 32.8139
rwrist 17.8158
rhand 13.6129 -17.3389
rfingers 7.12502
rthumb 38.5444 -42.9879
lclavicle -1.78844e-014 8.13775e-016
lhumerus -38.7681 14.7753 92.3848
lradius 32.7282
lwrist -14.5273
lhand 0.220069 10.657
lfingers 7.12502
lthumb 25.8011 38.9273
rfemur -3.50383 1.46475 21.8291
rtibia 22.4572
rfoot -12.1476 9.56736
rtoes -5.38636
lfemur 6.71736 -0.303152 -22.4301
ltibia 29.7309
lfoot -12.475 9.33673
ltoes -33.0376
667
root 14.1155 17.5749 16.7827 -178.98 38.1376 -178.859
lowerback -3.4457 -3.49802 1.7786
upperback -1.08403 -4.69882 -0.068888
thorax 0.665129 -2.34049 -1.24264
lowerneck -3.61982 -5.7954 -12.5079
upperneck 7.57908 -7.96372 13.4005
head 3.88651 -3.73799 5.78435
rclavicle -7.442e-015 -5.46658e-015
rhumerus -31.6184 1.47276 -94.7561
rradius 30.6607
rwrist 19.4952
rhand 13.2778 -17.3731
rfingers 7.12502
rthumb 38.2282 -43.1098
lclavicle -7.442e-015 -5.46658e-015
lhumerus -38.6061 14.6846 92.1948
lradius 32.7506
lwrist -14.3594
lhand 0.0257596 10.1007
lfingers 7.12502
lthumb 25.615 38.3979
rfemur -3.09459 1.36512 21.8289
rtibia 22.2758
rfoot -12.3828 9.42129
rtoes -5.09581
lfemur 6.18005 0.0407657 -22.1691
ltibia 31.2172
lfoot -12.6179 8.89557
ltoes -32.6513
668
root 14.1283 17.5637 16.7467 -179.175 37.9036 -179.112
lowerback -3.21789 -3.58468 1.5773
upperback -1.16626 -4.80264 -0.0330498
thorax 0.469924 -2.3943 -1.07904
lowerneck -3.45813 -5.72211 -12.5624
upperneck 7.3962 -7.85715 13.3036
head 3.78859 -3.70037 5.77409
rclavicle -8.41077e-014 -2.6339e-015
rhumerus -31.36 -0.60918 -93.5464
rradius 28.5129
rwrist 21.3024
rhand 13.1522 -17.64
rfingers 7.12502
rthumb 38.1096 -43.4094
lclavicle -8.41077e-014 -2.6339e-015
lhumerus -38.5799 15.0645 91.8288
lradius 32.6956
lwrist -14.8989
lhand -0.45166 9.90597
lfingers 7.12502
lthumb 25.1577 38.2682
rfemur -2.77173 1.19805 21.5509
rtibia 22.1157
rfoot -12.6657 9.42698
rtoes -5.68387
lfemur 5.56323 0.449548 -22.1514
ltibia 32.7113
lfoot -12.8298 8.60725
ltoes -31.3069
669
root 14.1356 17.5529 16.7177 -179.07 37.5504 -178.917
lowerback -3.09719 -3.56733 1.95224
upperback -1.15521 -4.78901 -0.024529
thorax 0.384147 -2.3893 -1.26866
lowerneck -3.19218 -5.75783 -12.6147
upperneck 6.98688 -7.90461 13.3518
head 3.63254 -3.73812 5.80198
rclavicle 9.3786e-015 -5.24295e-015
rhumerus -31.0407 -3.56815 -92.0242
rradius 26.4294
rwrist 24.1966
rhand 12.7649 -17.8809
rfingers 7.12502
rthumb 37.7438 -43.7494
lclavicle 9.3786e-015 -5.24295e-015
lhumerus -38.2293 14.8992 91.6101
lradius 32.4508
lwrist -15.056
lhand -2.28447 9.84583
lfingers 7.12502
lthumb 23.4005 38.4431
rfemur -2.46925 0.985969 21.6836
rtibia 21.9157
rfoot -12.9214 9.27501
rtoes -5.81825
lfemur 4.86199 0.745356 -21.7166
ltibia 34.161
lfoot -12.9487 8.2407
ltoes -29.514
670
root 14.145 17.5484 16.6878 -178.909 37.2189 -178.754
lowerback -3.04909 -3.54096 2.27327
upperback -1.17756 -4.76101 -0.0256045
thorax 0.308918 -2.37691 -1.44171
lowerneck -2.8186 -5.79516 -12.6818
upperneck 6.57009 -7.96194 13.3786
head 3.45758 -3.78557 5.82836
rclavicle -6.00501e-014 -8.19987e-016
rhumerus -30.9318 -6.9814 -90.3503
rradius 24.5413
rwrist 27.8126
rhand 12.3641 -18.1556
rfingers 7.12502
rthumb 37.365 -44.1248
lclavicle -6.00501e-014 -8.19987e-016
lhumerus -37.9657 14.3771 91.5873
lradius 32.4343
lwrist -14.455
lhand -3.94437 10.1038
lfingers 7.12502
lthumb 21.8074 38.8952
rfemur -2.22578 0.83101 21.812
rtibia 21.6441
rfoot -13.1492 9.03312
rtoes -6.04293
lfemur 4.01576 1.07197 -21.3088
ltibia 35.6336
lfoot -13.338 8.12133
ltoes -27.6643
671
root 14.1558 17.5431 16.6496 -178.768 37.0032 -178.659
lowerback -3.1719 -3.44511 2.62859
upperback -1.17113 -4.6458 -0.136819
thorax 0.350962 -2.3198 -1.75696
lowerneck -2.30071 -5.7674 -12.4209
upperneck 6.00089 -7.94023 13.3133
head 3.1861 -3.79423 5.78194
rclavicle 1.50905e-013 6.91136e-015
rhumerus -31.0183 -10.2467 -88.7705
rradius 22.857
rwrist 31.3191
rhand 12.0299 -18.2918
rfingers 7.12502
rthumb 37.049 -44.3436
lclavicle 1.50905e-013 6.91136e-015
lhumerus -37.6987 13.9135 91.2193
lradius 32.2948
lwrist -14.5701
lhand -4.98736 10.1978
lfingers 7.12502
lthumb 20.8056 39.1023
rfemur -1.92292 0.75428 21.8563
rtibia 21.2494
rfoot -13.3038 8.83715
rtoes -6.50505
lfemur 3.15746 1.25095 -21.0627
ltibia 37.0706
lfoot -14.1274 8.28568
ltoes -25.4794
